<svg viewBox="64 25.600000000000023 896.0000000000002 716.8" xmlns="http://www.w3.org/2000/svg"
  overflow="visible" xmlns:xlink="http://www.w3.org/1999/xlink" xmlns:blush="http://design.blush"
  width="896.0000000000002px" height="716.8px">
  <g id="Master/Doodles/Playing" stroke="none" stroke-width="1" fill="none" fill-rule="evenodd"
    blush:i="0">
    <path
      d="M797.909742,157 C802.338146,171.470139 804.241616,185.615278 807.957895,200.193199 C812.050341,216.238522 816.36151,232.922513 821.963817,248.493853 C832.430362,277.597752 849.514829,297.256929 865.621298,324 C878.185303,344.863075 912.917669,415.379612 919.378676,426.501997 C923.415345,433.453325 926.008796,443.701643 928.780763,451.247724 C930.350291,455.518772 932.036859,466.298402 931.292306,470.681128 C919.178405,469.329301 906.299346,467.85151 894.446168,470.681128 C890.589799,471.603124 877.362495,479.534434 873.646217,478.605945 C869.547284,477.58266 871.973383,471.362886 870.419421,467.574912 C866.010475,456.830415 861.082896,445.849778 857.862122,434.731289 C854.571302,423.36477 832.564119,352.879592 820.103885,329.976439 C813.698655,318.20606 808.906902,306.332143 801.767496,294.990297 C794.344019,283.195244 788.190432,271.878071 776,264.408607 C777.263405,254.193933 783.084926,243.048174 786.457466,233.2919 C789.754771,223.747297 791.31003,215.412975 792.517659,205.241154 C793.666916,195.580976 797.342984,186.123378 795.938192,176.277502 C795.207907,171.155881 791.852231,167.727615 790.612174,163.199447 C789.898753,160.593186 787.975108,162.88519 790.695191,159.615351 C791.965081,158.090812 796.289627,158.085618 797.909742,157 Z M787.741691,164.546093 C789.848974,175.999152 782.906514,191.779925 780.414434,203.075968 C777.804055,214.906644 774.682781,226.463515 771.869604,238.215033 C770.474715,244.04278 767.795437,249.168497 766.066451,254.813275 C764.129467,261.147105 763.232474,267.757334 761.244791,274.117117 C757.282423,286.791264 751.819868,298.94765 753.373355,312.43802 C754.724044,324.170073 756.338631,336.815673 760.186599,347.958594 C764.752162,361.18035 769.044727,373.666338 770.073019,387.756222 C771.049311,401.157054 767.794137,415.10809 764.278966,427.949634 C763.033576,432.4966 753.639853,465.468589 750.791576,464.994947 C748.624494,450.052507 737.045489,435.421503 729.58745,422.468361 C721.00752,407.571338 708.443498,394.673717 696,382.810601 C699.493071,381.445473 702.808099,374.236152 704.490285,370.836309 C706.813366,366.142709 709.51416,361.388345 712.176538,356.886797 C717.052798,348.644124 730.802334,315.881175 735,307.676134 C739.969859,297.961926 773.124777,199.883749 772.386383,189.719257 C772.054886,185.174886 771.791296,183.493132 774.206677,180.054359 C777.369551,175.548918 784.12382,168.906197 787.741691,164.546093 Z M710.978173,160 C710.978173,164.522913 711.384935,165.345143 708.686571,168.375573 C706.402743,170.939683 703.44659,172.791973 701.230124,175.563914 C696.262181,181.779348 691.903086,188.514358 688.365289,195.648143 C681.490486,209.51564 676.938374,225.923866 674.67009,241.220198 C672.167335,258.103836 673.623389,275.423918 672.51969,292.41407 C672.109041,298.729522 671.022182,306.188043 666.832788,311.2708 C663.085133,315.819692 656.264737,319.151476 651.110254,321.751957 C639.312847,327.701108 629.369189,335.564898 620.377666,345.422563 C618.184517,347.825604 617.581274,353.303583 615.090178,355.296159 C612.574469,357.309518 604.923785,363.280693 601.977995,364.595222 C595.131691,367.652929 568.459179,364.760238 561.219067,363.49507 C554.000976,362.233798 543.731247,356.214167 537.361658,353.051245 C528.322205,348.562104 516.907541,339.043895 503.117666,324.49662 C542.166861,309.575682 587.221345,295.504251 622.090214,271.611526 C622.288414,274.456207 627.247288,282.319997 627.756389,279.97411 C631.01567,264.98173 633.202342,249.790612 636.418875,234.803428 C637.273853,230.823472 638.124945,226.830527 639.667793,223.07269 C640.439864,221.190524 631.399115,219.74543 627.756389,221.187254 C614.186846,226.560974 600.105746,229.18423 585.817244,232.335462 C559.4865,238.14043 529.551757,240.366793 506.793787,256.230763 C497.0846,262.999546 487.416867,271.642701 479.540702,280.184538 C470.796605,289.669407 462.669067,305.306414 461.473392,318.508853 C445.666655,311.386758 425.00621,314.461789 408.709804,315.937386 C414.623405,301.046324 433.891333,286.362303 445.775533,276.214974 C455.592239,267.830308 465.193906,259.144288 476.023632,252.020894 C500.188431,236.12575 524.552724,221.077516 552.42502,212.077152 L555.279085,211.155723 C568.122989,207.013047 580.987105,202.965572 594.356529,200.815332 C602.186058,199.555359 610.132175,199.169573 618.004454,198.377219 C625.683714,197.60305 628.608777,195.961188 634.28661,190.558892 C644.89482,180.468716 659.476088,178.21895 673.144083,174.597502 C686.578903,171.038403 699.487781,168.01187 710.978173,160 Z"
      id="Accent" fill="hsl(var(--info))" blush:i="0.0" />
    <path
      d="M749.825777,33.7953684 L751.179449,35.3825706 L751.179449,35.3825706 C752.682089,34.6493169 754.160117,33.8758316 755.616124,33.0569235 L756.158512,32.9559969 C758.640076,32.5050214 757.815031,32.8564143 760.389597,33.8978941 C762.585266,34.7868831 761.271751,35.8030559 763.940233,36.3624051 C765.87812,36.7660191 767.518071,34.7544382 769.674878,35.3708904 L771.55836,36.1936919 L771.55836,36.1936919 C772.44699,38.1650412 773.811025,38.5141478 775.650464,37.239714 C777.818929,38.1338941 780.745191,41.727486 783.053558,41.6093868 C787.466916,41.3796772 786.428021,35.3047029 791.267559,35.6018978 C793.06166,35.7109125 797.700414,40.536111 798.980249,41.9688757 C800.77435,43.9791588 800.266561,45.7156074 802.514045,47.9763647 L804.124718,49.5965931 C805.106696,50.5566397 804.648963,49.8984467 806.768919,50.8827656 L806.968855,50.9768647 C811.602427,53.1870081 813.309738,52.3512287 815.217832,57.6708868 C816.878508,62.2975228 817.808591,68.0532397 817.826726,72.9550081 C817.837089,76.0139088 815.637535,82.7598426 819.882493,81.2803574 C822.861866,80.2421221 822.36185,72.8563757 825.558847,75.1729382 C827.990274,76.9327471 823.193483,86.3430522 823.137782,88.5506 L823.124459,89.2327798 C823.047014,94.835641 823.815186,95.5599886 820.268427,99.8973996 L820.054779,100.156773 C818.189432,102.404552 813.91468,106.547111 812.967757,109.459361 C811.847254,112.903707 814.821446,118.869666 815.507997,121.946736 L815.664604,122.680772 C816.895769,128.737117 815.57213,130.233935 811.327807,135.284166 L809.908071,136.134221 L809.908071,136.134221 C807.553071,136.12903 806.898904,137.303534 807.946866,139.655137 C807.009012,142.277979 807.12171,144.806082 805.795241,147.441901 C805.069828,148.882453 801.866355,151.798596 801.703137,153.223574 C801.414267,155.764655 802.675967,156.209799 804.814639,158.844321 C813.439276,169.465468 817.388888,183.228574 821.655868,196.00406 C829.170365,218.506512 838.432328,240.454806 847.402832,262.478372 C850.899061,271.06328 854.441924,279.308166 858.070282,287.989111 C862.585975,298.795843 868.93204,308.662971 874.300092,319.13617 L875.696423,321.879337 C878.969936,328.335583 882.375974,335.10358 886.432617,340.567942 C892.265711,348.426085 895.543021,358.525519 900.658475,367.031262 C905.758125,375.510183 911.655568,383.873792 916.703612,392.55259 L917.771734,394.417313 C922.810761,403.359115 929.03765,411.544302 933.822782,420.727493 L935.271955,423.522106 C940.752968,434.156353 946.622416,446.461356 948.290847,458.182578 L948.478153,459.580111 C949.126075,464.221177 950.664124,471.333677 947.930761,475.102471 C944.972114,479.181438 936.825472,480.88674 932.691916,477.842115 C936.677845,487.121574 939.209937,497.478662 941.048965,507.434375 L941.250488,508.538839 C942.051033,512.985082 943.16765,516.909611 942.188343,521.453188 L942.095496,521.901958 C941.431912,525.265739 942.587284,523.325679 939.673636,525.390047 L939.486182,525.524368 C936.739977,527.512589 938.009449,521.907416 935.851347,527.621604 C935.396668,528.827254 936.289185,532.170372 936.2568,533.569394 C936.132444,539.184949 935.714036,544.90303 935.495117,550.55103 L935.47122,551.404982 C935.395219,555.30383 935.665913,558.420261 930.755323,557.997773 C926.534977,557.63439 924.44553,553.153107 922.572411,549.990383 C921.969504,554.306476 921.587394,558.615894 921.124252,562.939069 L920.884531,565.101898 C920.370266,569.581883 921.398797,574.007361 915.662856,573.524582 C906.257106,572.731629 902.549729,555.686401 900.166231,548.564107 C895.980769,554.078223 893.896219,564.900217 892.045211,571.834271 L891.696212,573.145142 C889.94058,579.977714 887.66043,592.538252 878.857238,584.276806 C873.766396,579.498761 874.561435,570.869691 875.602057,563.879688 L876.210777,559.926295 C876.572188,557.505909 881.730389,536.238957 879.318393,535.012541 L878.837202,535.537208 C875.495874,539.238738 871.592371,544.579021 866.176767,541.476854 C861.336961,538.705392 862.579952,532.721147 863.068327,528.112286 L863.140398,527.371129 C864.295876,514.034997 868.872452,501.251725 872.265051,488.328291 C870.334936,487.896126 865.641776,487.511979 864.05105,486.075321 C862.013417,484.233751 863.269936,483.339571 862.374828,480.98667 C861.164944,477.800585 858.991297,474.563887 857.274919,471.537431 C851.682766,461.675493 849.959911,451.844703 847.069919,441.113243 C844.279672,430.747762 839.023021,421.624269 836.235365,411.126413 C833.144589,399.495582 829.85303,388.067207 826.206536,376.483096 C818.414525,351.715828 807.263551,328.108424 794.431973,305.597616 L793.592766,304.131074 C791.860843,301.117596 777.677733,268.567622 775.541652,269.529288 C774.018285,270.215821 773.1452,278.638504 772.563574,280.914835 C771.21638,286.185177 770.952122,291.726758 770.634754,297.159324 C765.437691,309.829688 770.970257,331.693626 774.123211,344.39903 C777.809861,359.250986 784.429251,375.165835 784.389094,390.605692 C784.348471,406.333244 780.943849,420.636158 774.694607,435.031506 L774.30845,435.912982 C771.291697,442.739843 768.56758,449.636082 765.237924,456.308679 L764.458384,457.844405 C762.749779,461.155078 761.177188,465.210685 758.81312,468.098276 L758.479079,468.499666 C755.822363,471.634817 754.857057,471.285074 751.525315,468.568078 L751.147129,469.525756 C749.690141,473.146587 747.925476,476.402128 743.082031,473.952626 C739.287865,472.033188 739.369474,467.276773 738.127205,463.741582 C734.798079,454.263791 727.682559,446.090284 722.659078,437.45606 C717.507353,428.603806 713.160059,419.08189 707.460389,410.572254 C704.716776,406.475118 701.447238,402.659604 698.517089,398.681865 C696.294218,395.667089 692.901619,388.694041 689.814729,386.925148 C689.406685,390.900291 693.646462,396.688453 695.212576,400.570155 C697.268343,405.66789 699.033946,410.908383 700.517155,416.19949 C703.40067,426.475424 705.14166,437.21467 707.337328,447.660615 C711.261033,466.335872 715.889424,484.890435 718.515158,503.844718 C720.958244,521.479144 721.608525,539.698876 719.752246,557.41117 C718.979019,564.795084 714.754779,571.072567 711.756763,577.770796 L711.487724,578.380927 C707.400802,587.800317 702.434317,593.672835 694.224201,600.355177 C679.314383,612.488254 662.807361,619.749413 644.648731,625.165107 C641.261314,626.174791 638.113541,625.736137 634.935975,626.421372 C631.369795,627.188368 628.532914,629.00528 624.657139,629.61135 C614.654218,631.175192 604.479012,633.014166 594.821957,635.849846 C587.210307,638.085946 579.691924,640.414188 572.161883,642.73724 C566.423351,644.507431 559.35317,646.153034 553.828376,648.7616 C540.768792,654.930448 528.486068,662.123136 516.355425,669.753698 L514.773979,670.751424 C511.066602,673.099133 508.333351,674.520218 505.598805,677.991817 C502.641454,681.747633 503.068929,684.40292 501.456182,688.686938 C499.952246,692.685442 497.326512,694.937115 493.759036,691.613464 C490.424729,688.506545 491.74213,681.951387 491.471396,678.107321 L491.439329,677.692117 C490.908674,671.324208 487.538347,650.1047 483.638236,648.293096 C480.757312,646.955071 472.333459,649.83228 468.83982,650.216427 C464.312469,650.713482 460.233318,650.701802 455.724102,650.082754 C457.215084,656.288806 451.771899,664.680343 449.485554,670.136269 C445.587757,679.441453 442.553979,688.505247 440.937345,698.408714 C439.910886,704.709764 440.150514,711.035685 439.34342,717.404416 L439.08611,719.245645 C438.150175,726.307101 439.492651,736.898836 430.129993,737.933034 C414.93001,739.612379 411.052939,709.202468 409.324903,699.005699 C406.730314,683.708318 408.58136,668.624668 410.147291,653.270911 L410.528472,649.510894 C410.74221,647.301338 411.004038,643.884165 410.56199,643.104515 C410.081404,642.258354 405.807947,640.79574 405.257411,640.405104 C400.439894,636.980225 402.401099,635.15942 403.835084,630.059089 C406.576107,620.312655 405.780744,608.134155 412.365158,599.611541 C417.401594,593.091424 428.708962,597.052291 435.223426,598.8121 C440.078508,600.12417 444.875299,601.88917 449.593071,603.637299 C452.854837,604.845545 456.497444,608.459901 459.353756,609.042611 C465.050835,610.206732 469.24916,602.931299 473.4993,600.353879 C481.166652,595.706479 489.164325,591.432843 497.426256,588.316839 C512.606809,582.589674 528.317172,579.302361 543.89152,574.482354 C553.426809,571.532468 562.844218,568.307449 571.902807,564.044196 C578.596033,560.895747 585.346256,556.462482 592.587427,554.328909 C601.708195,551.641177 610.964977,547.904828 619.86812,544.190541 C629.337345,540.241354 639.69779,537.709357 649.417023,534.507699 C629.18449,504.889442 611.895059,473.207692 597.999523,440.113942 C596.397139,436.298427 594.858228,432.46085 593.439787,428.572659 C592.716965,426.593523 590.942295,417.720504 589.061404,416.468133 C585.6866,414.224315 572.262568,424.22989 568.232406,426.904491 L568.076256,427.007519 C554.809654,435.698338 542.06335,445.162152 528.335247,453.195568 L526.457007,454.28196 C513.94364,461.432806 502.138847,469.727008 490.17213,477.396971 C484.05322,481.319554 478.330821,486.243656 472.179361,490.342564 L470.7518,491.272986 C464.068937,495.525857 456.204688,503.447593 448.287328,505.285269 C445.456924,505.943197 440.742066,505.200644 437.726122,504.924025 L435.743594,504.75951 C431.968845,504.442332 427.923962,504.0243 424.342238,503.001151 C416.317361,500.710545 407.837807,498.108468 399.995579,495.255916 C385.897964,490.129629 374.971437,477.482626 362.262469,469.673799 C347.223112,460.433316 330.223292,458.004695 313.407281,452.995243 L312.473261,452.714225 C293.742073,447.023398 272.966776,446.403052 253.196693,447.88124 C253.196693,429.843199 261.904234,416.313696 271.405843,401.509758 L268.496433,399.575503 C263.560971,396.320102 260.496555,394.856966 254.015373,398.374288 L249.242069,400.964321 C245.727023,402.884292 242.33931,404.792234 238.952285,406.949494 L237.823129,407.678174 C232.097551,411.423607 226.004086,414.296924 220.301825,418.404442 C214.104729,422.867556 208.683566,427.603207 202.960579,432.599714 C198.657328,436.356828 193.755612,439.772622 189.254168,443.168949 C184.808426,446.523747 180.281074,446.038372 174.595653,443.751659 L174.036874,443.519966 C171.975928,442.646116 167.600442,440.616269 166.797469,439.588335 C165.110381,437.428662 166.195209,435.885989 167.57044,433.181536 L167.815637,432.691857 C171.247097,425.713618 175.630662,418.631556 180.108789,412.2516 C184.10633,406.558177 189.294325,401.80306 193.479696,396.249799 C197.453921,390.982052 200.294688,384.862953 204.898467,380.088368 C210.046305,374.746648 216.151429,370.460034 221.011693,364.769207 L221.992293,363.62354 C224.126125,361.118131 226.22266,358.457861 226.388814,355.554868 C226.536487,352.985236 223.674993,350.496067 223.64779,348.651901 C223.588078,344.406992 230.720488,340.090925 233.915591,336.923157 L234.804158,336.018234 C239.115632,331.659144 243.497338,328.124647 250.155142,330.027258 C255.309457,331.498957 263.063599,337.995714 266.904399,341.770997 C271.736165,346.523519 275.741479,352.023571 280.724804,356.725479 C283.52671,359.369085 286.513855,361.781685 289.409028,364.316276 C291.12152,365.813931 293.83534,370.110927 295.729185,370.986938 C297.341624,371.734715 298.91764,371.097001 301.108489,370.979637 L301.441809,370.966174 C300.403047,370.992728 305.499765,371.855875 305.495803,371.828091 L305.484688,371.824015 C308.039177,372.507953 310.559985,373.248993 313.076908,374.06271 C323.424399,377.405828 332.957097,383.046041 342.292898,388.662894 C366.006116,402.928247 388.258145,418.130607 411.483005,433.335563 L412.068876,433.714862 C418.475252,437.813956 420.4071,437.331509 425.535282,431.07221 C430.464201,425.058232 434.551124,418.374593 439.18081,412.13999 C446.810596,401.866651 455.413211,391.874935 464.421281,382.746251 C473.291702,373.759986 483.457532,366.172473 492.998356,357.92229 L494.573216,356.554162 C497.734657,353.882263 508.369602,346.133582 507.675299,343.171317 C507.27114,341.445251 503.603921,338.531703 502.441965,336.765405 C500.708748,334.130883 498.912056,331.157637 497.633517,328.251876 C490.104771,311.144354 509.644276,309.972446 521.077295,304.685232 C535.03501,298.230004 548.852823,291.099924 563.118838,285.33642 C570.282287,282.443637 577.454804,279.801328 584.686908,277.118788 C591.343863,274.649085 597.406239,270.64539 603.958269,267.920023 C608.783558,265.912335 619.267064,265.146637 622.483492,260.875596 C624.381223,258.356578 623.563838,250.399802 623.896751,247.46549 C624.447287,242.594868 625.25949,237.751501 626.532848,233.014552 C624.218715,232.597584 619.939272,235.044135 617.694406,236.117501 L616.018719,236.903938 C612.417048,238.605036 609.095744,240.222272 604.995868,241.300968 C595.05383,243.914725 584.64416,244.213218 574.8485,247.050196 C559.939977,251.370552 544.043079,253.870104 529.460992,260.069666 C512.670282,267.206236 498.213847,279.759799 486.419416,293.310067 C480.331132,300.303879 475.490299,307.027751 471.336017,315.32974 C470.259556,317.480185 468.983607,324.685538 467.329408,326.185788 C465.22312,328.09614 459.663351,326.085857 457.26949,325.691328 C457.26949,331.342789 457.373888,337.002453 457.236965,342.648445 L457.173632,344.765008 C456.931396,351.465519 458.139985,361.744049 455.821256,367.925442 C453.71428,373.546553 449.83727,372.59561 445.687073,369.906615 L445.284639,369.641126 C439.569424,365.807442 436.63798,363.607681 431.514754,369.548982 C422.770698,379.688329 419.359883,395.333266 413.460915,407.344887 L413.117774,408.033769 C411.115117,411.995935 406.178426,420.291435 403.478855,412.147776 C401.512469,406.212964 404.774234,398.642931 403.249573,392.779497 L402.424457,394.215493 C399.819745,398.688148 394.399459,407.318015 390.010794,407.291431 C383.230777,407.249901 385.443285,396.722196 385.668682,392.43039 L383.040927,395.27462 C377.938773,400.712357 369.454882,408.741015 367.09812,399.464435 C364.916701,390.886015 371.006281,382.372486 375.330257,375.618765 C380.361512,367.759324 385.307271,359.780486 390.52765,352.056015 C395.636627,344.496365 399.056429,335.929626 404.235356,328.323254 L403.911873,328.36299 C399.886656,328.797397 392.71033,327.41665 395.073137,321.468306 C396.343904,318.273137 400.360876,319.616354 402.322081,317.632026 C404.364894,315.565938 405.464672,309.701207 406.608492,306.994008 C412.240802,293.653982 420.318789,282.686324 429.659771,271.839361 C446.165497,252.670942 467.238731,237.367354 488.485546,224.529574 C513.801149,209.235071 539.89916,199.93378 568.24595,192.457188 C581.094989,189.069494 594.117065,187.432021 607.10812,185.063113 L608.879416,184.735313 C614.515612,183.676313 620.233417,183.079328 624.693409,179.507799 L625.878712,178.554466 C631.887423,173.705746 636.21318,170.032958 643.741965,166.84003 C650.218863,164.093898 656.365439,162.827251 663.430439,161.654045 C671.000637,160.395185 679.688748,162.069339 686.963599,159.931872 C693.009135,158.153894 700.056,154.294254 705.547114,151.205504 C708.314045,149.650747 713.211875,148.774736 714.704152,147.452284 C717.587667,144.900821 719.495761,138.539034 721.336495,135.112857 C716.867876,136.283027 715.113885,133.190644 713.898039,129.371885 L713.559782,128.302522 C711.785858,122.822781 711.488422,124.673322 705.452551,122.070026 C701.705018,120.452975 700.492543,116.13781 697.522238,114.606413 C694.336899,112.962107 689.283624,116.507681 685.521842,115.35524 C682.471223,114.41953 679.489259,111.141302 679.656363,107.651534 C679.725018,106.195409 681.260043,104.902806 681.287246,103.716622 C681.35331,100.936747 679.08251,99.4014566 679.414127,96.354236 C679.917451,91.7383965 682.222479,92.4034852 680.413663,87.6424874 L680.289804,87.3241846 C678.26383,82.2368316 679.054012,81.2336368 679.66284,75.9606993 C679.832535,74.5032765 679.08251,72.1555669 680.100678,70.9161735 C680.693962,70.1920044 682.866314,70.0803941 683.087823,69.7144162 C683.916866,68.347839 683.942774,67.2252471 684.109878,64.7192066 C684.205736,63.2916331 683.764012,60.436486 685.249812,59.3800816 C686.54001,58.4625412 688.370381,60.1678426 689.499952,59.6279603 C690.480554,59.1594566 691.329028,56.824725 692.939185,56.5431037 C698.604311,55.5518362 697.227978,60.9936252 699.708102,54.9894335 L700.110406,54.000725 C701.869531,49.625861 703.220612,47.8349051 706.377452,45.3470338 C707.749259,45.9803574 708.60421,45.7246919 708.944894,44.5774419 L710.332246,42.0921662 L710.332246,42.0921662 C712.793467,41.5094566 713.147106,43.3536221 715.052609,41.5419015 C718.250901,38.5011699 714.960637,31.7669162 721.420695,33.5695522 C726.107378,34.8764309 727.246017,40.8852176 732.147733,42.3283647 C732.823921,40.3712912 732.735835,34.6506147 735.583079,34.0717985 C738.480843,33.4826 740.686875,38.7646221 741.741314,40.4893904 C742.426569,39.0060118 743.561322,34.5636625 744.690893,33.4774088 C747.935818,30.356214 746.953921,33.3800743 749.825777,33.7953684 Z M424.175134,605.922714 C424.175134,615.205835 423.25671,622.986111 419.431454,631.49964 C418.472873,633.633214 416.544053,635.364471 417.370505,637.974335 C417.638649,638.823093 420.001421,639.374655 420.568797,640.157225 C423.755431,644.558045 424.268401,648.0556 424.440686,653.543971 C425.015835,671.980435 423.00152,690.078174 425.451083,708.385345 C426.475728,708.47181 427.170051,685.355501 428.000389,682.174607 C429.846305,675.11331 433.064028,668.003993 436.625026,661.655185 C438.145802,658.94539 440.860917,655.449133 442.015101,652.66796 C443.792361,648.382644 440.916619,645.456118 440.105711,640.536181 C438.377675,630.046111 440.669201,620.775968 444.342898,611.049001 C437.578426,609.511115 431.053599,606.979118 424.175134,605.922714 Z M514.350389,349.095747 C503.254168,361.502659 491.230455,373.299607 478.346611,383.841589 C467.72968,392.529023 458.706066,403.810747 449.868987,414.154166 C441.566899,423.874644 434.852947,438.992648 423.577964,445.802174 C417.003913,449.774721 412.102196,447.260894 405.753541,443.267582 C400.714515,440.095773 395.158632,438.367111 390.08463,435.440585 C366.661578,421.925357 344.541677,406.660703 321.656206,392.333056 C316.65086,389.200181 308.78402,381.82871 302.893929,381.29921 C298.529795,380.905979 298.874366,381.997424 296.349672,385.609185 C293.903995,389.110633 291.424639,392.587424 288.997097,396.100552 L283.037275,404.707692 C275.38829,415.783351 267.742957,427.165895 261.627023,438.961501 C278.415142,434.959104 294.287427,434.342651 310.808698,436.707232 L315.565364,437.390595 C329.892341,439.475678 346.779192,442.345796 358.865983,449.725405 C364.613583,453.23464 370.257551,457.176041 375.990901,461.16546 C383.186734,466.17235 388.775002,473.173949 396.741586,476.95053 C403.612279,480.206696 411.047757,481.68099 418.189185,484.107865 L419.061563,484.408304 C427.023539,487.185468 437.902224,491.832706 446.120158,489.705251 C453.382056,487.824747 459.462568,481.385093 464.929069,476.949232 C472.041998,471.17924 480.684771,467.232648 487.881899,461.853291 C500.637502,452.320993 513.951413,444.176037 527.669482,435.657317 C544.049556,425.482611 559.763805,413.789486 576.765662,404.833409 C580.109036,403.071004 583.414845,401.84978 586.526347,399.744758 L586.860337,399.509557 C589.615426,397.49627 591.692968,394.244058 595.077147,396.726089 C598.067689,398.916131 596.952755,402.870635 596.021548,405.783684 L595.893236,406.183115 C595.005901,408.939629 594.18463,409.822129 594.757188,412.226942 C595.289589,414.465637 598.734003,417.8996 599.916685,420.087681 C605.504952,430.420718 609.496017,441.514262 614.84982,451.965398 C619.712502,461.450888 625.157449,470.601744 629.800766,480.199835 L630.782988,482.263699 C640.34548,502.705254 653.698252,520.819865 662.166149,541.918104 C658.265761,543.515688 657.779993,540.227078 654.755282,539.915607 C651.448178,539.574287 652.645109,540.203718 649.361322,542.570894 C644.958327,545.746596 640.235373,547.754284 635.509828,550.231773 C625.352802,555.557204 614.960297,561.79122 604.03733,565.645576 L602.864969,566.049287 C583.36562,572.597957 565.39482,584.170387 545.828112,591.323828 C538.079152,591.657361 530.186404,595.828471 522.673203,597.724549 L518.458599,598.791222 C509.637757,601.040031 500.62428,603.521079 492.542675,607.474876 C487.638904,609.875213 487.509317,611.295369 488.802226,616.626892 L488.871569,616.911137 C489.945439,621.286001 491.183822,625.522001 492.086701,629.974732 C494.327708,641.026747 496.832972,651.939898 499.621924,662.863431 C528.485571,638.778968 565.330051,625.158618 601.336421,615.87939 C606.429853,614.566023 611.619144,614.162409 616.783822,613.264335 C621.307287,612.47917 626.460307,613.038519 630.749309,612.14953 C633.504581,611.577203 635.995596,609.721357 638.811751,609.068567 C644.903921,607.656567 652.164523,607.543659 658.027411,605.376343 C665.436406,602.638141 673.675012,599.066468 681.106346,595.350094 L683.977521,593.895426 C691.58563,590.024068 697.605164,586.754638 699.340612,578.372897 L699.42515,577.942273 C700.793071,570.581185 704.224531,563.704174 705.290629,556.478056 C706.634481,547.360006 705.063122,539.225227 704.434384,530.172966 L704.374795,529.264611 C703.067542,508.074878 700.033865,486.661885 694.772605,465.952301 L694.316173,464.178938 C689.001231,443.795784 685.20836,422.928552 681.545026,402.265074 C680.890752,398.573607 679.637814,395.148224 678.714141,391.554084 L678.471091,390.569354 C676.914045,383.985644 673.819383,385.674074 667.841206,386.060817 C656.65949,386.78239 644.835266,382.32317 635.549985,376.302703 C631.165125,373.461832 625.623492,366.965074 620.609078,365.568648 C616.142609,364.324063 611.584168,370.35621 607.319779,372.378174 C597.131619,377.207265 584.638979,378.514144 573.519441,379.275949 C549.262163,380.937126 530.879432,365.152056 514.350389,349.095747 Z M467.965439,619.270526 C464.23086,618.907144 462.08312,616.228497 457.753962,617.305666 C451.591842,618.842254 452.823748,625.589486 452.731776,631.251762 C452.6968,633.476181 451.840554,636.820596 452.536173,638.982721 L452.775421,639.749796 C453.587223,642.425001 453.065506,641.37389 456.08121,641.583281 L456.485785,641.617243 C460.888781,642.049409 466.352691,640.621835 470.887815,640.376552 L483.247031,640.376552 L481.121314,626.793839 L481.121314,626.793839 C480.503417,622.842056 481.529358,617.283604 477.64581,616.595773 C474.429383,616.026041 471.237568,619.589784 467.965439,619.270526 Z M563.736011,522 C565.019819,529.194809 561.513783,530.066767 555.553973,533.272291 L554.979028,533.584911 C548.537424,537.128865 542.102339,540.039601 535.298305,542.900041 C527.966271,545.982301 520.283541,549.143229 512.64644,551.392375 C506.177459,553.298476 496.201512,557.569791 489.483523,556.936573 L488.75263,556.877637 C486.462116,556.714847 485.018994,556.722192 484.999917,553.676342 C484.980528,550.033086 488.406663,550.251037 491.233094,549.446296 C499.885781,546.984357 508.263386,543.286935 516.771361,540.354275 C532.793889,534.83458 548.843795,530.173791 563.736011,522 Z M898.281454,480.868571 C893.879754,482.13392 888.26817,483.333082 884.217518,485.465357 C879.962196,487.706648 881.266644,490.932964 881.349548,495.885346 C880.67595,500.723523 879.809342,505.524063 879.104655,510.353155 C878.607229,513.767651 876.696545,518.713545 877.130497,522.091703 L877.44826,521.93466 C882.380907,519.391964 887.641247,511.952133 891.437964,520.465567 C893.748921,525.645063 890.852452,535.926188 890.169787,541.500214 C895.847436,540.349071 894.56501,526.404273 903.636553,530.905023 C910.612172,534.364942 905.731182,551.950052 911.184729,553.66314 C914.879251,547.837368 914.353449,534.763623 915.495274,527.592671 L915.564408,527.177758 C916.142147,523.863192 915.314399,519.411758 919.194061,519.196324 C922.554276,519.009442 925.21369,523.878765 926.804416,526.104482 C928.318715,518.024416 932.405637,510.852806 930.621899,503.41385 C929.795123,499.96334 928.953046,496.50991 928.08583,493.065057 L927.20987,489.62349 C926.515546,486.925376 925.77718,478.642854 923.429952,476.788306 C919.063228,473.336174 903.106743,479.482526 898.281454,480.868571 Z M319.098306,489.26615 C324.86232,491.06906 330.858209,493.147792 336.208389,495.999809 L337.093956,496.482391 C340.094738,498.151436 347.229185,501.124342 348.926571,504.247693 C351.759423,509.456708 348.589419,511.677386 344.030762,510.821004 C339.696873,510.00577 334.372196,507.513775 329.848417,506.37579 C309.134883,501.161632 288.545358,497.251334 267.565719,495.164385 C262.547192,494.664186 258.901817,495.24668 254.064138,496.127494 C250.448473,496.787139 240.901,500.716724 238.183115,498.412465 C228.359203,490.086528 254.604098,482.453669 259.280306,481.936754 C278.84804,479.017854 300.107993,483.325482 319.098306,489.26615 Z M797.383046,156.950839 C794.687361,158.757368 790.165191,158.504299 790.248096,162.084913 C790.26364,162.788317 794.044853,167.801696 794.459375,168.776339 C795.29619,170.752879 795.810455,172.84103 796.192592,174.94735 C798.054053,185.181754 794.316883,195.111177 792.998186,205.162593 L792.743751,207.085597 C791.557937,215.957967 790.349481,223.463912 787.253178,231.982806 C783.662386,241.865508 777.782658,253.933696 776.501528,264.293986 C788.011554,271.351553 793.881205,281.661447 800.901896,292.760973 L801.286025,293.36717 C808.461132,304.670957 815.17897,316.242089 821.565191,328.00789 C834.270274,351.413607 843.617733,374.662291 850.63869,400.401442 C853.804597,412.01021 858.413558,423.281552 861.703822,434.647633 C864.642736,444.799325 865.664281,455.123222 869.680585,464.890159 L870.106949,465.898515 C871.315538,468.677093 872.249507,474.822148 875.45298,475.80328 C879.227716,476.959615 889.356289,471.780118 893.173772,470.82624 C905.573145,467.732299 918.503624,467.10806 931.217774,468.529144 C931.961322,464.149089 926.933954,455.509674 925.366545,451.241229 C922.777081,444.187718 920.449284,436.665703 916.977667,429.996339 C910.996899,418.512159 904.083459,407.340747 897.164837,396.518442 C889.834284,385.052431 883.805587,372.751938 876.309226,361.570144 L873.602494,357.561066 C870.617287,353.120208 867.354446,348.062524 865.628822,343.709901 L864.777652,341.54647 C864.203334,340.101125 863.746506,339.060035 862.797122,337.376666 C861.614441,335.275538 860.232271,333.204258 858.982229,331.12649 C843.221347,304.937004 831.578475,278.356883 821.446017,249.809306 C815.899201,234.182567 811.263038,218.453302 806.872997,202.459288 C802.747213,187.429534 801.966099,171.929979 797.383046,156.950839 Z M787.34515,166.779034 C783.816536,171.046181 779.552147,174.766957 776.066281,178.958832 L775.684045,179.42675 C772.603879,183.269598 773.76378,183.794951 774.177617,189.500813 C774.887485,199.29267 772.829127,210.666537 770.549259,220.179368 C765.793921,240.012258 757.386908,258.024343 751.25199,277.265438 C748.099036,287.158523 746.845109,298.313063 742.383822,307.650692 C738.384985,316.022762 732.851124,323.465611 728.610051,331.55606 C724.269666,339.832698 719.238688,347.677477 714.453405,355.699221 L713.432089,357.421096 C711.023979,361.506552 708.52001,365.507651 706.381338,369.746247 C704.580761,373.319074 702.585876,381.932534 699.058558,383.315982 C711.198855,394.930721 720.556362,406.819666 728.965631,421.285439 L729.537543,422.275762 C736.98468,435.257596 748.50449,449.829229 750.666479,464.807071 C753.548698,465.287254 762.831388,432.421916 764.106041,427.757644 L764.571817,426.038932 C767.893473,413.676054 770.809141,400.35899 769.879548,387.559769 C768.854903,373.43328 764.497246,361.027666 760.029482,347.756424 C756.257337,336.557758 754.610909,323.996409 753.239102,312.233203 C751.665216,298.724464 757.12265,286.588791 761.082625,273.908045 C762.911701,268.049802 763.874168,262.055291 765.481734,256.163306 C767.172205,249.963743 770.158054,244.341699 771.671058,238.001975 C774.195105,227.419762 776.959432,217.002589 779.387996,206.400403 L780.184292,202.859008 C782.664944,191.604537 789.441074,178.208707 787.34515,166.779034 Z M252.742015,342.453637 C245.539705,349.845872 239.027832,357.491177 232.242634,365.245497 C225.4393,373.017986 215.977848,378.004111 209.55147,386.02967 C203.679515,393.3661 199.271338,401.809549 193.672708,409.383475 C187.475612,417.768523 182.347205,427.159361 177.069828,436.156968 L178.255154,436.3695 C182.728307,437.144973 184.120878,436.953114 187.373277,433.222655 C190.290472,429.876942 192.677856,425.849887 195.622254,422.47692 C202.46704,414.631754 209.065703,408.242714 217.619094,402.096361 C225.979474,396.09017 236.747964,390.832806 246.746998,387.776501 L247.313763,387.608318 C250.791177,386.605566 252.18675,386.707897 254.238178,383.319876 C255.787452,380.764519 256.352238,377.564159 257.923533,374.947806 C261.317427,369.298508 266.679003,366.125401 272.008195,362.54349 C265.985975,355.451045 258.76812,349.656394 252.742015,342.453637 Z M408.469952,402.161251 C409.596932,402.546696 410.012749,401.817335 409.716107,399.97317 C408.589127,399.470924 408.17331,400.198986 408.469952,402.161251 Z M450.396206,323.931519 C440.531891,324.137868 430.61317,324.594692 420.873211,326.275335 L420.223845,326.384538 C415.098772,327.226687 411.639176,327.38905 409.045101,332.315269 C406.951767,336.29171 405.315703,340.447247 403.337658,344.482089 C395.735076,359.993324 387.606569,375.395545 377.544061,389.475313 C381.282526,392.635442 393.218153,370.330254 397.323211,370.457438 C406.050183,370.728677 393.652106,392.658802 392.893013,395.341343 C396.231037,394.15087 399.397209,386.867871 401.299818,383.555264 L401.719411,382.843726 C403.5293,379.68449 409.143173,367.585713 412.396248,366.815828 C418.876384,365.282587 416.107613,376.916028 415.157632,379.88185 L415.125612,379.980651 C413.063368,386.269762 411.046462,392.492685 409.245884,398.864854 C413.006649,396.812717 415.814023,384.708159 417.541602,380.404801 L417.634762,380.177916 C420.009193,374.527321 421.912106,368.332949 425.615596,363.390949 L425.970396,362.923155 C428.523142,359.596331 432.511019,355.253367 436.865967,355.026666 C442.412782,354.737258 444.498343,360.650008 449.495917,361.755729 C450.163038,349.156743 448.92336,336.492868 450.396206,323.931519 Z M277.093855,368.322567 C271.12345,370.633938 265.656949,381.065607 261.577799,385.762324 C264.72298,388.290427 268.203665,390.561567 271.534086,392.837898 L271.941644,393.123463 C274.903462,395.249832 274.231552,395.901179 277.549828,393.225938 C280.070637,391.196188 282.090134,387.539004 284.180876,385.044644 C286.691322,382.045442 289.881842,379.378475 292.131916,376.175519 C286.346751,375.246299 281.864738,366.477104 277.093855,368.322567 Z M733.994919,346 C741.471372,350.843925 741.623847,361.671673 743,369.608317 C742.039923,375.89844 741.896493,382.846396 738.878001,388.595003 C734.614304,396.717417 733.705011,388.35266 734.316132,383.729448 L734.355432,383.451241 C735.365903,376.73721 735.91378,369.86292 735.409837,363.076515 C734.997637,357.516599 731.255534,351.005475 733.994919,346 Z M694.290266,378.537504 C693.255257,379.379773 693.634804,380.070199 695.426314,380.603593 C696.48982,379.788578 696.110274,379.098151 694.290266,378.537504 Z M710.692361,160.419843 C700.374796,167.606656 688.913498,170.779282 676.954696,173.926622 L672.859507,175.004453 C659.236,178.611023 644.573599,180.905523 634.003302,190.951747 L633.34759,191.56959 C628.088933,196.476597 625.099549,198.019966 617.721677,198.761872 C609.849655,199.554824 601.903797,199.940269 594.074523,201.197832 C579.710059,203.507905 565.942766,207.999571 552.144383,212.449707 C524.274292,221.44342 499.909498,236.478365 475.745488,252.358174 C465.776507,258.910684 456.863367,266.772551 447.85212,274.514818 L442.26678,279.293885 C430.873408,289.077794 417.115582,301.567206 411.723946,315.131177 C428.006866,313.659479 444.539795,308.958868 460.34213,316.073376 C461.541652,302.848854 470.512155,289.982523 479.262444,280.498243 C487.023063,272.088537 496.511718,263.684023 506.00685,256.918622 C528.21849,241.09246 557.672582,236.727503 583.693311,231.09751 L588.152148,230.123737 C601.447667,227.238851 613.957466,224.764881 626.686998,219.729034 C630.126231,218.368946 640.156355,212.282291 642.0502,215.908328 C643.260084,218.226188 640.156355,221.55503 639.384309,223.436832 C638.048772,226.68521 637.288384,230.063368 636.513748,233.496034 C633.256645,247.948961 631.146017,262.659648 628.133406,277.179653 L627.473294,280.288001 C626.977163,282.574714 626.315224,292.915537 622.204985,291.510026 C619.465257,290.574317 622.005497,274.784056 621.807304,271.931504 C586.934391,295.809618 545.684325,309.862133 506.631223,324.771192 L508.120888,326.076673 C518.767011,335.475469 528.820252,345.723806 541.376625,352.192326 L542.256751,352.637427 C548.624837,355.796258 553.688475,360.274946 560.90633,361.533806 C568.151388,362.799155 575.625728,362.082773 582.896693,361.566251 L584.240518,361.474317 C590.922516,361.031372 597.061447,360.782332 603.27921,358.165735 L603.901272,357.896089 C606.846965,356.582721 611.326388,355.310883 613.842015,353.3006 C616.33303,351.308486 617.901734,348.079574 620.094812,345.678655 C628.861261,336.07592 638.535266,328.365704 649.945266,322.478241 L650.826396,322.028953 C663.973203,315.402416 671.248054,307.877806 672.235134,292.716975 C673.338797,275.741828 671.88279,258.437041 674.385464,241.568313 C676.657559,226.262129 681.19916,209.902137 688.081512,196.036504 C691.617898,188.909019 695.97685,182.179957 700.94463,175.970012 C703.161025,173.200519 706.117081,171.348567 708.400835,168.788019 C711.099111,165.760265 710.692361,164.938762 710.692361,160.419843 Z M589.089851,306.363063 C594.354972,308.387695 599.849353,309.340696 605.270371,310.760311 L605.781529,310.900933 C609.418251,311.950786 614.142675,314.394907 610.936369,319.416405 C610.329813,320.365451 604.907485,323.228407 604.838052,321.405447 C595.040132,322.482351 582.580176,321.546486 573.729427,316.777529 C567.593118,313.470366 564.748984,302.632784 573.659994,301.109038 C578.663104,300.253578 584.667097,304.660052 589.089851,306.363063 Z M711.415183,177.372927 C709.736371,179.932177 707.338624,182.647163 706.113195,185.451696 L705.432806,187.011638 C704.703113,188.732621 704.81865,188.896433 705.131718,191.246979 L705.210315,191.855012 C705.903343,197.406975 708.668979,204.521482 711.479952,209.393401 C717.54751,219.912023 729.47666,221.335703 739.956281,217.782343 C746.49147,217.067258 752.15487,213.107688 757.169284,208.979405 C765.387172,202.214004 766.634622,196.915111 768.19685,186.491229 L763.320908,188.875764 C755.05995,192.884279 747.968462,195.911137 737.979531,196.091012 C724.366388,196.336295 717.674457,188.354861 711.415183,177.372927 Z M607.143143,148.46287 C611.317546,154.767137 599.045918,155.941169 595.959532,156.512635 C582.323671,159.034342 568.983479,162.387978 555.76,166.144622 C530.053516,173.446627 503.855336,182.567917 479.811347,194.339405 L478.137387,195.164982 C474.300153,197.071164 463.025766,204.828069 459.185939,200.909445 C454.333424,195.959133 465.740401,190.478312 468.823335,188.764461 L469.018283,188.654677 C481.238038,181.663614 494.150285,175.393039 507.26613,170.244663 C533.099701,160.106002 560.394767,152.202668 588.063311,149.152258 L588.410786,149.101497 C592.340408,148.47829 604.924716,145.113201 607.143143,148.46287 Z M774.656908,119.544519 C772.160711,119.465354 769.177452,122.194615 766.876858,123.073221 C764.059408,124.146497 760.938838,124.640957 758.039779,125.440398 C749.447526,127.814063 742.561289,128.269589 733.737163,127.214482 C731.76171,128.69267 731.497452,134.244633 730.589391,136.550813 C728.923533,140.786813 726.560761,144.761957 724.489449,148.807181 C720.855909,155.90871 717.837675,163.858997 717.971099,172.005251 C718.107114,180.378618 724.598261,185.186946 732.397741,186.705365 C740.969267,188.374328 747.547205,185.003957 755.079837,181.399982 C762.555472,177.821964 768.724069,172.168773 774.669861,166.459776 C779.37468,161.942155 782.374779,154.583662 787.709152,152.049071 L789.088924,151.407134 C793.845692,149.221618 799.126627,146.875507 800.513979,140.370221 C801.555464,135.490515 799.572238,136.062843 795.293599,137.103674 C790.74034,138.209394 787.443599,141.13592 783.219366,142.707549 C785.57048,137.347659 786.135266,132.948137 783.240092,127.695964 L783.003779,127.271812 C781.287294,124.225845 778.273666,119.659728 774.656908,119.544519 Z M755.928879,167.260685 C753.810098,172.518064 748.722736,174.230916 743.340677,173.975568 L742.893596,173.868668 C738.742868,172.834356 732.645106,170.158397 738.268558,166.437758 C740.637579,164.870277 745.304487,165.622415 747.949153,164.153534 C749.550941,163.264874 750.459172,161.361144 752.064771,160.670947 C757.385859,158.381667 757.930797,162.290255 755.928879,167.260685 Z M743.227621,146.616508 C741.892241,148.123787 740.554265,149.629751 739.214991,151.1344 L740.389451,152.571971 C740.187002,154.617188 742.098582,156.129728 739.754853,157.468655 C735.88757,159.680909 732.981916,154.452781 732.999916,151.557911 C733.027337,146.75461 737.75892,143.742682 740.947482,140.879378 C747.743778,135.798559 746.819783,142.145966 743.227621,146.616508 Z M756.085501,134.033139 C760.863742,134.788768 755.602165,146.321649 752.201855,145.993114 C751.749611,143.786675 751.691667,133.337959 756.085501,134.033139 Z M740.072531,141.287505 C733.727943,147.507635 733.96501,134.984872 737.33771,132.28529 C743.810607,127.102524 739.641167,139.124863 740.072531,141.287505 Z M799.471198,121.334177 C797.686165,121.497699 798.695266,123.261401 799.754886,123.920681 L799.471198,121.334177 L799.471198,121.334177 Z M739.944622,100.7291 C745.644292,101.283258 752.606957,96.0635301 758.453005,95.2056882 C764.716165,94.28685 770.987097,95.0668243 777.278756,95.0512507 C781.807403,95.7715265 793.533178,105.40635 796.842873,103.107957 C801.336545,99.9893574 788.417724,91.3733022 785.771264,90.0171074 C772.835604,83.387975 748.640505,88.6258721 739.944622,100.7291 Z"
      id="Girl" fill="#000" blush:i="0.1" />
    <path
      d="M452.974034,150.752374 C460.715184,150.752374 468.969695,127.582513 474.984847,126 C478.994949,124.944991 484.629315,122.944991 491.887944,120 L473.952841,110.913292 C459.869408,112.966443 451.551794,116.750283 449,122.264812 C445.172309,130.536605 445.232885,150.752374 452.974034,150.752374 Z"
      id="Accent" fill="hsl(var(--destructive))" blush:i="0.2" />
    <path
      d="M369.347932,404.221227 L371,404.316227 L371,404.316227 C369.767097,405.379227 368.324052,404.286227 369.347932,404.221227 Z M408.935279,400.125925 C409.142511,401.636439 408.852024,402.233842 408.064721,401.918132 C407.857489,400.310886 408.147976,399.714546 408.935279,400.125925 Z M402.663792,393 C403.081792,394.361911 403.043792,395.694427 402.549792,397 C401.845792,395.499694 401.883792,394.167177 402.663792,393 Z M156.981181,97.4869094 C169.061033,102.238767 141.740489,121.137287 138.137908,124.160843 L137.306678,124.865218 C126.338496,134.251388 119.982538,143.467618 120.242887,158.501279 C120.500676,173.484216 134.935614,180.607464 147.008988,185.564177 C153.27108,188.135236 160.835075,190.198048 167.830378,190.010048 C175.757092,189.798711 181.148657,185.245225 188.369364,182.574331 C202.581488,177.318116 217.161513,173.783719 231.81149,170.24284 C246.237359,166.753822 261.930156,167.542125 276.703199,165.264086 L279.296821,164.856163 C292.214094,162.782635 304.388244,160.165401 316.695605,155.429751 C330.28981,150.199466 340.774992,134.59937 355.601147,132.957938 C364.79738,131.941442 360.30225,138.451422 356.329177,141.790039 C351.574962,145.784711 346.412687,149.264653 341.655882,153.272291 C329.538462,163.478736 316.844579,169.483061 301.487298,173.374009 C290.331085,176.199193 278.303051,178.841563 266.447308,180.527078 C251.47995,182.656014 236.415436,181.990884 221.712346,185.86757 C213.465252,188.04168 205.443713,190.779003 197.638917,194.231673 L195.891892,195.013691 C192.395223,196.549813 185.99165,198.903281 185.395065,201.503969 C184.586719,205.020213 187.400385,204.9502 184.008959,208.188983 C178.296128,213.646164 170.865562,217.504698 165.095732,223.166734 L163.495954,224.740544 C157.656566,230.50286 152.122144,236.207979 147.349685,242.988398 L146.582381,244.087054 C141.764972,251.031607 137.680428,257.690178 130.415871,262.497593 L128.779794,263.581343 C126.278167,265.226552 123.02327,267.265558 120.696286,267.88865 C118.044548,268.59916 116.833324,267.511354 114.563737,268.986828 C108.52705,272.908893 112.14388,285.157406 110.550506,291.221372 C108.5128,298.98771 103.294822,304.818297 100.045893,312.021932 C104.591544,311.03785 107.765339,303.510078 110.102288,299.958826 C112.721641,295.975823 116.039228,293.29326 119.37236,289.850918 C126.380617,282.61487 128.235668,272.7183 136.566555,265.904928 C151.658274,253.56436 175.117151,254.628828 187.708697,238.08614 C189.747698,235.406171 191.663634,227.660578 194.110694,225.975062 C198.59287,222.887976 198.21331,232.112932 197.752138,234.851247 C196.175604,244.199376 190.410956,255.247283 182.874165,261.147884 C179.463307,263.820074 174.692252,265.042722 171.732202,268.510994 L169.558476,269.374497 C169.991149,270.914799 170.226917,272.481032 170.261893,274.071899 C170.330551,276.851703 169.656929,279.56279 169.544227,282.365933 C169.263119,289.423057 170.824108,295.455906 172.237418,302.21612 C173.249146,307.044474 170.527455,317.109596 172.695999,321.045923 L173.563795,318.141733 C177.66685,304.466921 182.561708,289.202384 190.138917,277.273082 C192.057443,274.249527 195.862111,271.753667 197.372578,268.640649 L199.525577,266.247217 L199.525577,266.247217 C198.267718,265.081618 197.171787,263.782474 196.237784,262.34849 C191.369572,252.11741 202.036113,258.44328 206.291589,259.311968 C213.132736,260.708353 221.657938,257.839087 228.762056,257.62386 C235.684815,257.413818 242.511713,257.183033 249.279021,256.108192 C256.586521,254.949076 264.168652,253.19614 271.318111,251.279838 C278.496069,249.353164 285.128653,245.390906 292.105819,243.649639 C285.549718,239.168267 283.205887,233.415245 280.943715,226.303342 L280.510457,224.924856 C278.924855,219.828117 273.291046,207.461618 276.836628,202.289678 C280.635466,196.744739 282.019777,205.108042 283.254688,208.253888 L283.832367,209.686878 C285.929481,214.926507 288.915884,222.659047 292.506106,226.221407 C294.61247,228.311446 297.457226,228.081957 299.339481,230.86954 C300.722996,232.920683 300.910833,235.754943 301.127169,238.132816 C301.768405,245.153637 298.992307,250.774183 296.516747,257.166177 C290.743031,272.068729 288.409968,288.007224 280.857632,302.1863 C285.451214,302.62583 290.205429,301.965886 294.784761,301.503018 C300.079169,302.765858 301.973083,290.423994 302.566388,286.60306 C303.525004,280.408141 304.624821,275.080615 307.961839,269.663627 C309.585009,267.029037 311.524262,264.320543 313.62933,262.048986 C314.857394,260.726505 317.935328,259.003389 318.577859,257.583667 C320.314791,253.749472 318.382149,244.241451 318.315169,239.690711 L318.313592,239.381394 C318.329137,236.545838 316.475382,223.353437 319.803333,222.432886 C324.126171,221.234874 325.253192,233.266862 325.731204,235.975356 C326.277874,239.076705 326.18849,242.06655 326.518823,245.135485 C326.824544,247.999565 328.384237,249.773246 328.981429,251.681769 C330.654654,257.027265 326.793999,261.533491 323.904137,266.33655 L323.728475,266.630996 C320.493795,272.099846 316.993553,277.41311 314.723965,283.383725 C312.260064,289.861291 312.418106,296.68374 310.491807,303.241692 C307.360761,313.899337 294.229023,319.710476 283.592277,316.584493 C277.93774,314.922315 279.126942,311.100084 277.335367,306.696999 C276.656564,305.025745 274.750991,304.097415 274.183594,301.877721 C273.614152,299.652021 274.07831,296.789798 274.520866,294.477253 L274.594245,294.097121 C276.831446,282.609684 280.461231,270.582882 283.96795,259.406617 C264.881137,269.920344 244.667303,276.846517 222.687802,276.452366 L221.89371,276.434314 C211.375249,276.147889 203.611352,274.138814 195.89061,283.24629 C189.758061,290.481042 189.765834,303.205388 187.26307,312.202152 C184.546561,321.969067 182.096909,334.479483 175.912543,342.65164 C168.452182,352.5145 158.266244,350.891219 157.505829,337.739011 C156.85682,326.526442 162.433631,315.899914 161.498333,304.517498 C161.028093,298.790634 158.772756,293.74446 158.911366,287.943693 C159.030546,282.959753 160.008593,278.277909 160.930936,273.370465 C150.014377,274.694243 141.559129,279.181605 133.803411,286.709377 C126.754843,293.548871 123.694364,301.946878 118.037601,309.80391 L116.894998,311.365683 C111.667769,318.62429 106.791654,327.980696 96.4005627,327.738717 C82.6133389,327.418469 81.7454031,310.441437 86.9154501,301.368176 C89.5581201,296.730415 93.2293587,293.100074 96.5883995,289.014643 C99.9160773,284.969474 100.617922,281.636345 101.278121,276.842097 L101.513611,275.085802 C102.096553,270.68142 102.257186,264.862501 106.219895,261.958228 C109.783613,259.343086 114.258016,260.615002 117.554877,257.149322 C120.70924,253.836636 123.19905,248.821578 126.032147,245.158823 L127.808453,242.859817 C130.479568,239.392652 133.160642,235.842224 135.5817,232.217832 L136.378719,231.006975 C143.148617,220.556778 152.045606,213.285723 161.423198,205.109675 C158.022704,202.991112 149.057057,205.332682 144.845626,204.662366 C137.926753,203.559001 128.972766,200.264466 123.612291,195.526871 C112.645849,185.831229 107.293272,173.263256 106.615944,158.746252 L106.589092,158.104534 C106.061853,143.900824 108.289987,126.769502 118.843826,116.214285 C124.222437,110.8336 131.108924,106.124529 137.904731,102.693856 L140.111624,101.578596 C145.008903,99.1313588 152.496415,95.7243417 156.981181,97.4869094 Z M353.768501,46.9642724 C362.441267,51.3976017 363.636751,63.7948403 372.967487,67.9972941 C382.184244,72.1478657 393.042039,67.8429447 402.735435,71.0752023 C405.494245,71.9961104 412.874386,78.4735962 415.116405,78.443764 C418.094106,78.4022583 425.573978,71.8210082 428.389778,70.2580585 C435.455181,66.3383625 444.592929,62.5159454 452.463957,61.3862117 L454.430148,61.100891 C457.918023,60.6167262 459.538912,60.699611 462.599022,63.811702 C466.610306,67.8909357 467.86796,72.9338802 469.299174,78.2336413 C484.517961,71.9675752 499.89088,66.1191604 515.539679,61.0100662 C519.799459,59.6192541 522.915432,57.8958669 526.388385,55.7851787 L528.161558,54.6973061 C534.232236,50.9540094 537.610159,52.686873 538.713683,60.426392 C539.189262,63.7617572 539.049899,66.8030306 538.462007,69.6438947 C536.646192,78.4167113 530.554325,85.2778519 525.085421,92.9863293 L523.948157,94.5868514 C520.524205,99.379465 517.731216,102.870131 511.872923,105.463985 C505.115781,108.454991 496.981825,107.49128 489.643131,109.739074 C491.526375,112.032265 492.521101,117.372235 494.178977,118.984472 C495.528592,120.294496 501.982653,120.076591 504.159911,121.220593 C510.683914,124.650003 509.90808,130.3739 505.865711,136.034242 C501.305256,142.41834 494.563656,143.594768 487.196468,144.151204 C483.898848,144.398941 480.958708,144.444338 477.658498,144.210868 C475.522687,144.06041 468.088147,141.752952 466.478194,142.436499 C464.571636,143.244563 464.128672,147.450908 463.260877,149.371845 L462.982463,149.982474 C461.669224,152.829594 460.130254,155.60877 457.10083,156.925885 C454.291507,158.145115 451.124704,157.815664 448.570538,156.141168 C445.147282,153.898562 446.086313,151.251275 443.931074,148.371816 C443.727725,145.339305 442.4351,144.76471 440.051902,146.645438 C438.232124,147.282291 436.414936,147.92563 434.600338,148.575454 L433.285759,149.057636 C430.024623,150.266462 426.951936,151.531897 424.036557,153.558734 C417.708132,157.957043 413.875588,165.377487 406.823137,168.469662 C411.425039,176.334996 408.550955,187.035688 400.806859,191.12011 L399.904309,191.594081 C398.355986,192.401887 396.613381,193.270192 395.067757,193.767396 C393.685761,194.212286 390.069518,193.851705 389.135668,194.623452 C387.783462,195.742809 387.040008,206.33844 386.093205,208.699078 C382.837032,216.816039 375.92317,220.855064 371.830287,228.217141 C367.838432,235.401521 368.695865,246.552291 367.534056,254.644608 L367.298413,256.319531 C365.983043,265.83355 364.942185,275.70667 360.888303,284.49111 C358.016809,290.714373 349.402328,298.092014 341.795524,296.865001 C330.724459,295.080126 335.37923,281.058272 338.801298,274.803772 L338.904602,274.61664 C344.195559,265.119614 344.189083,257.933937 342.84724,247.429099 L342.556719,247.475808 C337.971532,248.263439 327.503643,252.225576 328.018312,243.99061 C328.378382,238.252445 340.767123,232.991595 345.108687,230.109542 C354.923833,223.595739 364.968233,216.015757 373.25632,207.669217 C376.682166,204.219055 381.585854,197.847927 383.329214,193.129246 C384.598526,189.685569 384.326531,186.336576 384.602412,182.735955 C384.856274,179.421983 387.764034,174.870622 387.620265,171.974301 C387.406554,167.67846 376.095433,160.814452 372.861279,156.265685 C368.252901,149.785605 364.37891,142.122612 361.50094,134.726812 C358.446821,128.962706 360.449224,123.452822 364.98248,120.39437 C371.522026,115.98309 378.104313,111.150268 384.516927,106.26297 C373.617685,104.553454 365.806238,100.948942 356.919761,94.3015417 C346.798279,86.7291098 343.824739,79.7242179 344.026778,67.0815379 L344.049243,65.7504734 C344.125529,58.6420883 343.690684,41.812998 353.768501,46.9642724 Z M350.477357,244.666375 C349.606972,248.019259 352.606692,253.39814 352.970648,256.883323 C353.510753,262.041705 352.938267,266.777248 352.082129,271.85651 C359.603448,272.905827 363.340147,239.685689 363.737778,235.334074 C360.365035,234.989058 351.271324,241.614408 350.477357,244.666375 Z M352.232185,171.366654 C356.480781,173.889958 351.861062,185.170911 350.894705,188.56957 L350.852744,188.720774 C349.572017,193.469243 347.709258,205.880434 341.335112,206 C337.659593,200.974295 342.579942,189.728542 344.068354,184.386186 L344.781839,181.735788 C346.094889,176.983644 348.621888,169.221943 352.232185,171.366654 Z M391.399705,184.084891 L391.949094,183.963787 C396.108101,183.092031 406.5303,181.645428 403.318282,175.196182 C399.91316,168.362007 390.850534,179.414201 391.399705,184.084891 Z M620,182.235727 C618.803359,183.126727 617.358992,182.628727 616,182.597727 L620,182.235727 Z M351.584766,63.2591572 C351.584766,77.8406341 364.696238,89.3299351 378.038257,93.9565254 C384.831665,96.3119748 395.241316,92.7593449 401.243346,96.5986237 C402.984117,97.7114957 406.69491,102.781678 406.830908,104.87642 C407.295891,112.015403 402.206987,105.626117 399.325132,105.846616 C395.319029,106.152721 389.744419,116.710737 386.405352,119.920945 C383.893929,122.336059 381.058701,124.295907 378.222178,126.371193 C377.287032,127.056037 372.481781,129.486716 372.242166,130.661846 C372.031046,131.704677 374.665515,135.537471 375.221163,136.525826 C379.040754,143.332763 383.642657,148.210982 389.680954,153.012674 C392.656065,155.3785 395.755516,156.696307 398.738399,158.661343 C399.508459,159.170653 402.14881,162.654401 402.644868,163.971236 L402.667,164.036 L402.694209,163.959429 C404.43265,159.199177 408.711068,153.806307 411.744771,149.55563 L412.064876,149.104652 C415.293849,144.527349 419.549929,139.732142 424.962636,137.878652 C427.340653,137.064103 431.278109,136.364991 433.753267,136.165245 C435.491447,136.104283 437.212789,136.246959 438.917293,136.593272 C441.398927,137.687986 442.370339,136.807286 441.828939,133.947283 C444.436208,128.533381 442.900082,121.717364 446.21454,116.217857 C450.105369,109.761124 456.468765,106.836268 463.759535,107.563915 C467.036432,107.890773 470.565895,109.296779 473.810411,108.723481 C477.025137,108.155372 480.66858,105.561264 483.814659,104.443204 L487.982566,102.9563 C499.082122,98.9630697 511.644513,94.022636 520.158067,86.2646658 L521.153523,85.3341884 C522.865709,83.7161262 526.285615,80.4058524 526.578805,78.612381 L524.015572,72.8417894 L524.015572,72.8417894 C523.7915,70.0219948 522.419866,69.252842 519.900671,70.535628 C516.933331,70.4733694 511.305618,73.8781352 508.335688,74.8522225 C504.565314,76.0896117 500.772922,77.1778397 497.063423,78.5747664 L492.78828,80.1884684 C487.813215,82.0540247 482.852602,83.809819 477.595032,84.9316263 L475.486544,85.3782746 C469.883528,86.5312775 466.871115,86.6290961 463.578205,80.7006373 L463.27493,80.14376 C459.997098,74.0021604 460.243474,70.454158 452.101296,71.3748217 C444.626605,72.2179066 438.362941,75.0377012 431.472392,78.0131422 C426.896394,79.9885549 420.934515,83.6267903 416.280804,84.4063195 C412.831644,84.9848055 409.109193,83.6410579 405.785669,82.9484313 C401.589169,82.0755142 398.263054,82.2285665 393.995318,82.2324577 L393.070756,82.3288267 C384.254313,83.3040334 374.524951,85.8750679 366.495293,81.0093361 C359.756284,76.9275083 357.260403,68.3150722 351.584766,63.2591572 Z M687,160.277317 C683.990538,160.738317 681.982055,160.763317 679,160.693317 L687,160.277317 Z M87.5003443,108.66057 C90.2282471,111.536552 80.9422794,129.85454 79.9699202,134.040619 C78.7970355,139.087544 78.194198,144.079936 78.9672929,149.238525 L78.9952682,149.390591 C79.3662415,151.177086 82.1783012,159.468506 78.3493214,158.979207 C73.3311406,150.695342 73.4320339,139.652353 74.820578,130.292105 C75.2884707,127.136965 82.9008707,103.812302 87.5003443,108.66057 Z M475.821881,114.736622 C471.713456,121.36716 461.444984,118.48381 455.220176,122.434635 C450.107959,125.679863 445.309184,139.509049 450.216757,144.545508 C456.970441,151.475705 460.329638,136.32188 462.274983,132.545827 L462.333502,132.434918 C466.274845,125.151962 472.210819,119.697852 480.812349,119.882033 L484.577541,119.882033 L475.821881,114.736622 Z M493.274917,128.207821 C490.529059,128.404973 488.487798,130.394653 485.701789,130.657955 C480.017086,131.194935 475.621123,128.769445 471.906444,134.839656 C479.809851,134.839656 495.619257,137.519369 501.189981,130.279215 C499.025675,129.607341 495.592058,128.041798 493.274917,128.207821 Z M452.460908,83.7801521 L452.65015,84.1819464 C453.544189,86.138989 455.038879,90.2562325 452.913841,91.5870927 C450.460892,93.12271 450.986242,90.891017 448.967792,90.5549346 C446.562243,90.1537612 447.348293,89.0312727 444.55301,90.2507336 C442.567478,91.116843 440.709662,94.4099187 439.337695,96 C433.926197,86.7809822 446.276526,71.0395758 452.460908,83.7801521 Z M394,68.7541957 L388,68.7171957 L388,68.7171957 C390.010353,67.9041957 392.005176,68.2951957 394,68.7541957 Z"
      id="Dog" fill="#000" blush:i="0.3" />
  </g>
</svg>